<svg width="24" height="24" viewBox="0 0 24 24" fill="none" xmlns="http://www.w3.org/2000/svg">
<path d="M22.8 5.40001C22.8 5.95156 22.6914 6.49772 22.4803 7.00728C22.2692 7.51685 21.9599 7.97986 21.5699 8.36986C21.1799 8.75987 20.7169 9.06924 20.2073 9.28031C19.6977 9.49138 19.1516 9.60001 18.6 9.60001C18.0485 9.60001 17.5023 9.49138 16.9928 9.28031C16.4832 9.06924 16.0202 8.75987 15.6302 8.36986C15.2402 7.97986 14.9308 7.51685 14.7197 7.00728C14.5087 6.49772 14.4 5.95156 14.4 5.40001C14.4 4.2861 14.8425 3.21782 15.6302 2.43016C16.4178 1.64251 17.4861 1.20001 18.6 1.20001C19.7139 1.20001 20.7822 1.64251 21.5699 2.43016C22.3575 3.21782 22.8 4.2861 22.8 5.40001ZM11.0064 18.714C11.3211 19.66 11.9618 20.4633 12.8141 20.9805C13.6664 21.4976 14.6748 21.6949 15.6592 21.5372C16.6435 21.3794 17.5398 20.8768 18.1877 20.1191C18.8357 19.3615 19.1932 18.3981 19.1964 17.4012C19.1966 16.3734 18.8199 15.3812 18.1377 14.6125C17.4554 13.8437 16.515 13.3519 15.4944 13.23C15.2817 14.4531 14.7568 15.6006 13.9706 16.5614C13.1843 17.5221 12.1633 18.2636 11.0064 18.714ZM14.4 12C14.4 13.5913 13.7679 15.1174 12.6427 16.2427C11.5174 17.3679 9.99132 18 8.40002 18C6.80873 18 5.2826 17.3679 4.15738 16.2427C3.03217 15.1174 2.40002 13.5913 2.40002 12C2.40002 10.4087 3.03217 8.88259 4.15738 7.75737C5.2826 6.63215 6.80873 6.00001 8.40002 6.00001C9.99132 6.00001 11.5174 6.63215 12.6427 7.75737C13.7679 8.88259 14.4 10.4087 14.4 12ZM8.43482 9.00601C8.38176 9.15592 8.39038 9.32075 8.45878 9.46431C8.52719 9.60786 8.64978 9.71839 8.79962 9.77161C9.65162 10.0728 10.3284 10.7484 10.6296 11.6004C10.654 11.6771 10.6936 11.7481 10.7459 11.8091C10.7983 11.8702 10.8624 11.9201 10.9345 11.9559C11.0065 11.9917 11.085 12.0127 11.1653 12.0175C11.2456 12.0223 11.3261 12.011 11.4019 11.9841C11.4777 11.9572 11.5474 11.9154 11.6067 11.861C11.666 11.8067 11.7138 11.7409 11.7472 11.6678C11.7806 11.5946 11.799 11.5154 11.8012 11.435C11.8034 11.3546 11.7894 11.2745 11.76 11.1996C11.5506 10.6095 11.2122 10.0734 10.7694 9.63064C10.3266 9.18784 9.79059 8.84941 9.20042 8.64001C9.12612 8.61377 9.04738 8.60242 8.96869 8.60661C8.89 8.6108 8.81291 8.63045 8.74182 8.66444C8.67072 8.69842 8.60702 8.74608 8.55434 8.80469C8.50167 8.8633 8.46106 8.93171 8.43482 9.00601Z" fill="black"/>
</svg>
